<?xml version="1.0" encoding="utf-8"?>
<!-- Generator: Adobe Illustrator 19.0.0, SVG Export Plug-In . SVG Version: 6.00 Build 0)  -->
<svg version="1.1" id="Layer_1" xmlns="http://www.w3.org/2000/svg" xmlns:xlink="http://www.w3.org/1999/xlink" x="0px" y="0px"
	 viewBox="0 0 100 100" style="enable-background:new 0 0 100 100;" xml:space="preserve">
<style type="text/css">
	.st0{fill:#FBAA1C;}
	.st1{fill:#25A64A;}
</style>
<g>
	<path id="XMLID_9_" class="st0" d="M35.3,79.4l8.4,8.4c0,0,2.4,2.2,6,2.2c3.6,0,5.3-1.4,6.8-2.7c1.5-1.3,27.1-27.1,29.4-29.3
		c2.3-2.2,3.3-4.6,3.2-7.5c-0.1-2.9-1.3-4.6-2.3-5.8C85.8,43.3,74.8,32,74.8,32s0.1,5.3-0.9,9.5c0,0,3,2.9,4.9,4.9
		c1.9,2,1.9,3.8,1.7,5.1c-0.2,1.3-0.9,2.7-2.1,3.9c-1.2,1.2-21.9,21.9-24.2,24.1c-2.3,2.2-6,2.8-8.4,0.4l-4.8-4.8L35.3,79.4z"/>
	<path id="XMLID_8_" class="st0" d="M59.3,17L56,13.7c0,0-2.4-2.2-6-2.2c-3.6,0-5.3,1.4-6.8,2.7c-1.5,1.3-27.1,27.1-29.4,29.3
		c-2.3,2.2-3,4.4-3,7.3c0,2.9,1,4.5,2,5.7c1,1.3,5.3,5.5,5.3,5.5s2-5.6,2.5-7.5C19,52.9,19,51,19.2,49.7c0.2-1.3,0.7-2.3,2.2-3.8
		c1.2-1.2,21.9-21.9,24.2-24.1c2.3-2.2,5.6-3.2,8.6-0.2C55.8,20.2,59.3,17,59.3,17"/>
	<path id="XMLID_7_" class="st1" d="M21.8,65.7c0,0,1.6-4.4,2.4-7.5l8.5,8.7c0,0,10.4-5.4,14.2-12.1c0,0-3.7-7-3.2-12.8
		c0.6-6,6.8-10.5,8.5-12.4c1.7-1.9,15.8-14.2,17.4-19.5c1.2,5.1,3.5,20.4-0.5,32.5c-2.6,8.1-7.4,13.3-16.6,15.9
		c0,0,8.3-13.7,8.1-24.7c0,0-8.5,30.1-27.9,42.7L21.8,65.7z"/>
	<path id="XMLID_6_" class="st1" d="M50.7,77.6l-0.9-0.9l2.2-2.2l1.9,1.9c-0.1,0.7-0.3,1.3-0.5,1.7c-0.2,0.4-0.5,0.9-1,1.3
		c-0.5,0.5-1.1,0.9-1.6,1c-0.5,0.2-1.1,0.1-1.6,0c-0.6-0.2-1.1-0.5-1.5-1c-0.5-0.5-0.8-1-1-1.6c-0.2-0.6-0.1-1.1,0.1-1.7
		c0.2-0.5,0.5-0.9,1-1.5c0.5-0.5,0.9-0.8,1.3-1c0.3-0.2,0.7-0.2,1-0.2c0.4,0,0.7,0.1,1.1,0.4L50,75.4c-0.2-0.1-0.5-0.2-0.7-0.1
		c-0.2,0-0.4,0.2-0.6,0.4c-0.3,0.3-0.4,0.7-0.4,1.1c0,0.4,0.3,0.8,0.7,1.3c0.5,0.5,0.9,0.8,1.3,0.8c0.4,0,0.8-0.1,1.1-0.5
		c0.2-0.2,0.3-0.3,0.4-0.5c0.1-0.2,0.2-0.4,0.3-0.7l-0.4-0.4L50.7,77.6z"/>
	<path class="st1" d="M57.4,72.7l-1.6,1.6l0.5,1l-1.4,1.4l-2.8-6.3l1.5-1.5l6.3,2.8l-1.5,1.5L57.4,72.7z M56.2,72L54,70.9l1.1,2.1
		L56.2,72z"/>
	<polygon id="XMLID_3_" class="st1" points="55.8,66.8 59.5,63 60.5,64 58.2,66.4 58.9,67.1 61.1,64.9 62,65.8 59.8,68 60.7,68.9 
		63.1,66.5 64.1,67.5 60.3,71.3 	"/>
	<path class="st1" d="M60.4,62.2l2.1-2.1c0.4-0.4,0.8-0.7,1.2-0.8c0.4-0.1,0.7-0.2,1.1-0.1c0.4,0,0.7,0.2,1.1,0.4
		c0.4,0.2,0.7,0.5,1,0.8c0.5,0.5,0.8,0.9,1,1.3c0.2,0.4,0.2,0.8,0.2,1.1c0,0.4-0.1,0.7-0.3,1c-0.2,0.4-0.5,0.7-0.7,1l-2.1,2.1
		L60.4,62.2z M62.8,61.8l2.5,2.5l0.3-0.3c0.3-0.3,0.5-0.5,0.5-0.7c0.1-0.2,0-0.4,0-0.6c-0.1-0.2-0.3-0.5-0.7-0.9
		C65,61.2,64.5,61,64.2,61c-0.3,0-0.7,0.2-1,0.5L62.8,61.8z"/>
</g>
</svg>
