<?xml version="1.0" encoding="utf-8"?>
<!-- Generator: Adobe Illustrator 19.0.0, SVG Export Plug-In . SVG Version: 6.00 Build 0)  -->
<svg version="1.1" id="Layer_1" xmlns="http://www.w3.org/2000/svg" xmlns:xlink="http://www.w3.org/1999/xlink" x="0px" y="0px"
	 viewBox="0 0 100 100" style="enable-background:new 0 0 100 100;" xml:space="preserve">
<style type="text/css">
	.st0{fill:#FBAA1C;}
	.st1{fill:#25A64A;}
</style>
<g id="XMLID_10_">
	<path id="XMLID_51_" class="st0" d="M25.7,77.9l8,7.9c0,0,2.2,2.1,5.7,2.1c3.4,0,5.1-1.3,6.5-2.6c1.4-1.3,25.7-25.7,27.9-27.8
		c2.2-2.1,3.2-4.4,3-7.1c-0.1-2.7-1.2-4.4-2.2-5.5C73.7,43.6,63.2,33,63.2,33s0.1,5-0.8,9c0,0,2.8,2.8,4.7,4.7
		c1.8,1.9,1.8,3.6,1.6,4.8c-0.2,1.2-0.8,2.6-2,3.7C65.5,56.3,45.9,75.9,43.7,78c-2.2,2.1-5.7,2.7-8,0.4l-4.6-4.6L25.7,77.9z"/>
	<path id="XMLID_50_" class="st0" d="M48.5,18.7l-3.1-3.1c0,0-2.2-2.1-5.7-2.1c-3.4,0-5.1,1.3-6.5,2.6C31.8,17.3,7.5,41.8,5.4,43.9
		c-2.2,2.1-2.8,4.2-2.9,6.9c0,2.8,0.9,4.3,1.9,5.4c1,1.2,5,5.2,5,5.2s1.9-5.4,2.4-7.1c-1.5-1.6-1.6-3.4-1.4-4.6
		c0.2-1.2,0.6-2.2,2.1-3.6c1.2-1.1,20.8-20.8,22.9-22.9c2.2-2.1,5.3-3.1,8.1-0.2C45.2,21.7,48.5,18.7,48.5,18.7"/>
	<path id="XMLID_49_" class="st1" d="M12.9,64.9c0,0,1.5-4.2,2.3-7.1l8.1,8.2c0,0,9.9-5.1,13.4-11.5c0,0-3.5-6.6-3-12.2
		c0.5-5.7,6.5-10,8-11.7c1.7-1.8,15-13.5,16.5-18.5c1.1,4.9,3.3,19.3-0.5,30.8c-2.5,7.7-7,12.6-15.8,15.1c0,0,7.9-13,7.7-23.5
		c0,0-8.1,28.5-26.5,40.5L12.9,64.9z"/>
	<path id="XMLID_48_" class="st1" d="M40.4,76.2l-0.9-0.9l2.1-2.1l1.8,1.8c-0.1,0.7-0.3,1.2-0.5,1.6c-0.2,0.4-0.5,0.8-0.9,1.2
		c-0.5,0.5-1,0.8-1.5,1c-0.5,0.1-1,0.1-1.5,0c-0.5-0.2-1-0.5-1.5-0.9c-0.5-0.5-0.8-1-0.9-1.5c-0.2-0.5-0.1-1.1,0.1-1.6
		c0.2-0.4,0.5-0.9,1-1.4c0.5-0.5,0.9-0.8,1.2-0.9c0.3-0.1,0.7-0.2,1-0.2c0.3,0,0.7,0.1,1,0.3l-1.1,1.5C39.5,74,39.3,74,39.1,74
		c-0.2,0-0.4,0.2-0.6,0.4c-0.3,0.3-0.4,0.6-0.4,1c0,0.4,0.3,0.8,0.7,1.2c0.5,0.5,0.9,0.7,1.3,0.7c0.4,0,0.7-0.1,1-0.4
		c0.1-0.1,0.3-0.3,0.4-0.5c0.1-0.2,0.2-0.4,0.2-0.7l-0.4-0.4L40.4,76.2z"/>
	<path id="XMLID_93_" class="st1" d="M46.7,71.6l-1.5,1.5l0.5,0.9l-1.4,1.4l-2.7-5.9l1.5-1.5l5.9,2.7l-1.4,1.4L46.7,71.6z
		 M45.5,70.9l-2-1.1l1.1,2L45.5,70.9z"/>
	<polygon id="XMLID_45_" class="st1" points="45.1,65.9 48.7,62.4 49.6,63.3 47.4,65.5 48.1,66.2 50.2,64.1 51,65 49,67.1 
		49.8,67.9 52.1,65.6 53.1,66.6 49.5,70.3 	"/>
	<path id="XMLID_89_" class="st1" d="M49.5,61.6l2-2c0.4-0.4,0.8-0.7,1.1-0.8c0.3-0.1,0.7-0.2,1.1-0.1c0.4,0,0.7,0.2,1,0.3
		c0.3,0.2,0.6,0.4,0.9,0.7c0.5,0.5,0.8,0.9,0.9,1.2c0.1,0.4,0.2,0.7,0.2,1.1c0,0.4-0.1,0.7-0.3,0.9c-0.2,0.4-0.4,0.7-0.7,0.9l-2,2
		L49.5,61.6z M51.8,61.2l2.4,2.4l0.3-0.3c0.3-0.3,0.4-0.5,0.5-0.7c0.1-0.2,0-0.4,0-0.6c-0.1-0.2-0.3-0.5-0.6-0.8
		c-0.5-0.5-0.8-0.7-1.2-0.7c-0.3,0-0.6,0.1-1,0.5L51.8,61.2z"/>
	<polygon id="XMLID_42_" class="st1" points="68.6,65.6 71.2,65.6 71.2,66.3 70.3,66.3 70.3,71.6 69.5,71.6 69.5,66.3 68.6,66.3 	
		"/>
	<polygon id="XMLID_41_" class="st1" points="71.6,65.6 72.4,65.6 72.4,68 73.6,68 73.6,65.6 74.4,65.6 74.4,71.6 73.6,71.6 
		73.6,68.7 72.4,68.7 72.4,71.6 71.6,71.6 	"/>
	<polygon id="XMLID_40_" class="st1" points="75.3,65.6 77.4,65.6 77.4,66.3 76.1,66.3 76.1,68.2 77.3,68.2 77.3,68.9 76.1,68.9 
		76.1,70.9 77.4,70.9 77.4,71.6 75.3,71.6 	"/>
	<polygon id="XMLID_39_" class="st1" points="79.6,65.6 81.8,65.6 81.8,66.3 80.4,66.3 80.4,68.2 81.7,68.2 81.7,68.9 80.4,68.9 
		80.4,71.6 79.6,71.6 	"/>
	<path id="XMLID_38_" class="st1" d="M82.3,65.6h0.8v4.2c0,0.4,0,0.7,0.1,0.9c0.1,0.1,0.2,0.2,0.5,0.2c0.2,0,0.4-0.1,0.5-0.2
		c0.1-0.1,0.1-0.4,0.1-0.8v-4.4h0.8V70c0,0.7-0.1,1.1-0.3,1.3c-0.2,0.3-0.6,0.4-1.1,0.4c-0.5,0-0.9-0.2-1.1-0.5
		c-0.2-0.2-0.2-0.7-0.2-1.3V65.6z"/>
	<polygon id="XMLID_37_" class="st1" points="85.5,65.6 88.1,65.6 88.1,66.3 87.2,66.3 87.2,71.6 86.4,71.6 86.4,66.3 85.5,66.3 	
		"/>
	<path id="XMLID_36_" class="st1" d="M88.5,65.6h0.8v4.2c0,0.4,0,0.7,0.1,0.9c0.1,0.1,0.2,0.2,0.5,0.2c0.2,0,0.4-0.1,0.5-0.2
		c0.1-0.1,0.1-0.4,0.1-0.8v-4.4h0.8V70c0,0.7-0.1,1.1-0.3,1.3c-0.2,0.3-0.6,0.4-1.1,0.4c-0.5,0-0.9-0.2-1.1-0.5
		c-0.2-0.2-0.2-0.7-0.2-1.3V65.6z"/>
	<path id="XMLID_79_" class="st1" d="M92.1,65.6h1.1c0.4,0,0.8,0.1,1,0.3c0.3,0.3,0.4,0.7,0.4,1.2c0,0.4-0.1,0.8-0.2,1
		c-0.1,0.3-0.3,0.4-0.6,0.5l1.1,2.9H94l-1.1-2.9v2.9h-0.8V65.6z M92.9,68.3c0.3,0,0.5-0.1,0.7-0.2c0.1-0.1,0.2-0.4,0.2-0.7
		c0-0.2,0-0.3,0-0.5c0-0.1-0.1-0.2-0.1-0.3c-0.1-0.1-0.1-0.1-0.2-0.2c-0.1,0-0.2-0.1-0.3-0.1h-0.1V68.3z"/>
	<polygon id="XMLID_33_" class="st1" points="95.4,65.6 97.5,65.6 97.5,66.3 96.2,66.3 96.2,68.2 97.4,68.2 97.4,68.9 96.2,68.9 
		96.2,70.9 97.5,70.9 97.5,71.6 95.4,71.6 	"/>
	<path id="XMLID_75_" class="st1" d="M62.7,76.7c0,1.1-0.1,1.8-0.4,2.3c-0.2,0.4-0.6,0.7-1.2,0.7c-0.6,0-1-0.2-1.2-0.7
		c-0.2-0.5-0.4-1.3-0.4-2.5c0-1.1,0.1-1.8,0.3-2.3c0.2-0.4,0.6-0.7,1.2-0.7c0.5,0,0.9,0.2,1.1,0.5c0.2,0.2,0.3,0.6,0.3,1
		C62.6,75.4,62.7,76,62.7,76.7 M61.8,76.8c0-1,0-1.7-0.1-2.1c-0.1-0.3-0.3-0.5-0.6-0.5c-0.3,0-0.5,0.2-0.6,0.5
		c-0.1,0.3-0.1,1-0.1,1.9c0,0.9,0,1.5,0.1,1.8c0.1,0.3,0.3,0.5,0.6,0.5c0.3,0,0.5-0.2,0.6-0.5C61.8,78.2,61.8,77.6,61.8,76.8z"/>
	<polygon id="XMLID_30_" class="st1" points="63.4,73.6 65.6,73.6 65.6,74.3 64.2,74.3 64.2,76.2 65.4,76.2 65.4,76.9 64.2,76.9 
		64.2,79.6 63.4,79.6 	"/>
	<polygon id="XMLID_29_" class="st1" points="67.7,73.6 69.8,73.6 69.8,74.3 68.5,74.3 68.5,76.2 69.7,76.2 69.7,76.9 68.5,76.9 
		68.5,78.9 69.8,78.9 69.8,79.6 67.7,79.6 	"/>
	<path id="XMLID_28_" class="st1" d="M70.5,73.6h0.8L72,76c0.2,0.7,0.4,1.4,0.6,2.2c-0.1-0.5-0.1-0.9-0.1-1.3c0-0.4,0-0.7,0-1.1
		v-2.2h0.8v6h-0.8l-0.9-2.7c-0.1-0.3-0.2-0.5-0.2-0.8c-0.1-0.3-0.1-0.5-0.2-0.8c0,0,0-0.1,0-0.1c0-0.1,0-0.1,0-0.2
		c0,0.1,0,0.1,0,0.2c0,0,0,0.1,0,0.1l0,0.6l0,0.7c0,0,0,0.1,0,0.2c0,0.1,0,0.1,0,0.2l0,2.6h-0.8V73.6z"/>
	<polygon id="XMLID_27_" class="st1" points="74.1,73.6 76.3,73.6 76.3,74.3 74.9,74.3 74.9,76.2 76.1,76.2 76.1,76.9 74.9,76.9 
		74.9,78.9 76.3,78.9 76.3,79.6 74.1,79.6 	"/>
	<path id="XMLID_68_" class="st1" d="M76.9,73.6H78c0.4,0,0.8,0.1,1,0.3c0.3,0.3,0.4,0.7,0.4,1.2c0,0.4-0.1,0.8-0.2,1
		c-0.1,0.3-0.3,0.4-0.6,0.5l1.1,2.9h-0.8l-1.1-2.9v2.9h-0.8V73.6z M77.8,76.3c0.3,0,0.5-0.1,0.7-0.2c0.1-0.1,0.2-0.4,0.2-0.7
		c0-0.2,0-0.3,0-0.5c0-0.1-0.1-0.2-0.1-0.3c-0.1-0.1-0.1-0.1-0.2-0.2c-0.1,0-0.2-0.1-0.3-0.1h-0.1V76.3z"/>
	<path id="XMLID_24_" class="st1" d="M81.6,76.4h1.5v0.2c0,1.2-0.1,2-0.3,2.4c-0.2,0.4-0.6,0.6-1.1,0.6c-0.6,0-1-0.2-1.2-0.7
		c-0.2-0.5-0.4-1.3-0.4-2.4c0-1.3,0.1-2.1,0.4-2.5c0.2-0.4,0.6-0.6,1.1-0.6c0.4,0,0.7,0.1,0.9,0.3c0.2,0.2,0.4,0.5,0.5,0.9l-0.8,0.3
		c0-0.2-0.1-0.3-0.1-0.4c0-0.1-0.1-0.2-0.1-0.3c-0.1-0.1-0.2-0.2-0.4-0.2c-0.3,0-0.5,0.2-0.6,0.5c-0.1,0.3-0.1,1-0.1,1.9
		c0,0.9,0.1,1.5,0.2,1.8c0.1,0.3,0.3,0.5,0.6,0.5c0.3,0,0.4-0.1,0.5-0.3c0.1-0.2,0.2-0.6,0.2-1.2v-0.2v-0.1h-0.7V76.4z"/>
	<path id="XMLID_23_" class="st1" d="M83.3,73.6h0.9l0.4,1.3c0,0,0,0.1,0,0.1c0,0,0,0.1,0,0.2c0.1,0.5,0.2,0.9,0.3,1.2
		c0-0.3,0.1-0.5,0.1-0.7l0.1-0.5l0-0.2l0.3-1.4h0.8l-1,3.4v2.6h-0.8V77L83.3,73.6z"/>
	<rect id="XMLID_22_" x="53.4" y="81.6" class="st1" width="0.8" height="6"/>
	<path id="XMLID_21_" class="st1" d="M55,81.6h0.8l0.8,2.4c0.2,0.7,0.4,1.4,0.6,2.2c-0.1-0.5-0.1-0.9-0.1-1.3c0-0.4,0-0.7,0-1.1
		v-2.2h0.8v6h-0.8l-0.9-2.7c-0.1-0.3-0.2-0.5-0.2-0.8c-0.1-0.3-0.1-0.5-0.2-0.8c0,0,0-0.1,0-0.1c0-0.1,0-0.1,0-0.2
		c0,0.1,0,0.1,0,0.2c0,0,0,0.1,0,0.1l0,0.6l0,0.7c0,0,0,0.1,0,0.2c0,0.1,0,0.1,0,0.2l0,2.6H55V81.6z"/>
	<polygon id="XMLID_20_" class="st1" points="58.2,81.6 60.8,81.6 60.8,82.3 59.9,82.3 59.9,87.6 59.1,87.6 59.1,82.3 58.2,82.3 	
		"/>
	<polygon id="XMLID_19_" class="st1" points="61.2,81.6 63.4,81.6 63.4,82.2 62,82.2 62,84.2 63.2,84.2 63.2,84.8 62,84.8 62,86.9 
		63.4,86.9 63.4,87.6 61.2,87.6 	"/>
	<polygon id="XMLID_18_" class="st1" points="64,81.6 64.8,81.6 64.8,86.9 66.2,86.9 66.2,87.6 64,87.6 	"/>
	<polygon id="XMLID_17_" class="st1" points="66.6,81.6 67.4,81.6 67.4,86.9 68.7,86.9 68.7,87.6 66.6,87.6 	"/>
	<rect id="XMLID_16_" x="69.1" y="81.6" class="st1" width="0.8" height="6"/>
	<path id="XMLID_15_" class="st1" d="M72.2,84.4h1.5v0.2c0,1.2-0.1,2-0.3,2.4c-0.2,0.4-0.6,0.6-1.1,0.6c-0.6,0-1-0.2-1.2-0.7
		c-0.2-0.5-0.4-1.3-0.4-2.4c0-1.3,0.1-2.1,0.4-2.5c0.2-0.4,0.6-0.6,1.1-0.6c0.4,0,0.7,0.1,0.9,0.3c0.2,0.2,0.4,0.5,0.5,0.9L72.9,83
		c0-0.2-0.1-0.3-0.1-0.4c0-0.1-0.1-0.2-0.1-0.3c-0.1-0.1-0.2-0.2-0.4-0.2c-0.3,0-0.5,0.2-0.6,0.5c-0.1,0.3-0.1,1-0.1,1.9
		c0,0.9,0.1,1.5,0.2,1.8c0.1,0.3,0.3,0.5,0.6,0.5c0.3,0,0.4-0.1,0.5-0.3c0.1-0.2,0.2-0.6,0.2-1.2v-0.2v-0.1h-0.7V84.4z"/>
	<polygon id="XMLID_14_" class="st1" points="74.4,81.6 76.6,81.6 76.6,82.2 75.2,82.2 75.2,84.2 76.4,84.2 76.4,84.8 75.2,84.8 
		75.2,86.9 76.6,86.9 76.6,87.6 74.4,87.6 	"/>
	<path id="XMLID_13_" class="st1" d="M77.2,81.6H78l0.8,2.4c0.2,0.7,0.4,1.4,0.6,2.2c-0.1-0.5-0.1-0.9-0.1-1.3c0-0.4,0-0.7,0-1.1
		v-2.2H80v6h-0.8l-0.9-2.7c-0.1-0.3-0.2-0.5-0.2-0.8c-0.1-0.3-0.1-0.5-0.2-0.8c0,0,0-0.1,0-0.1c0-0.1,0-0.1,0-0.2c0,0.1,0,0.1,0,0.2
		c0,0,0,0.1,0,0.1l0,0.6l0,0.7c0,0,0,0.1,0,0.2c0,0.1,0,0.1,0,0.2l0,2.6h-0.8V81.6z"/>
	<path id="XMLID_12_" class="st1" d="M83.2,81.7v0.7c-0.2-0.1-0.4-0.2-0.5-0.2c-0.2,0-0.4,0-0.5,0.1c-0.1,0.1-0.3,0.2-0.3,0.4
		c-0.1,0.2-0.2,0.4-0.2,0.7c0,0.3-0.1,0.7-0.1,1.1c0,1.5,0.4,2.2,1.1,2.2c0.1,0,0.3,0,0.5-0.1v0.7c-0.2,0.1-0.4,0.2-0.7,0.2
		c-1.2,0-1.8-1-1.8-3c0-1.1,0.1-1.9,0.4-2.4c0.3-0.5,0.8-0.8,1.4-0.8C82.8,81.5,83,81.5,83.2,81.7"/>
	<polygon id="XMLID_11_" class="st1" points="83.8,81.6 86,81.6 86,82.2 84.6,82.2 84.6,84.2 85.8,84.2 85.8,84.8 84.6,84.8 
		84.6,86.9 86,86.9 86,87.6 83.8,87.6 	"/>
</g>
</svg>
